# xmcd CD database file
#
# Track frame offsets:
#	150
#	9283
#	10453
#	11988
#	21873
#	31790
#	36828
#	43670
#	53738
#	67923
#	72273
#	83015
#	91988
#	104375
#	134835
#	146838
#	157955
#	166148
#	190055
#	200173
#	212738
#	219920
#	235455
#	239158
#	256673
#	271245
#	282068
#
# Disc length: 3847 seconds
#
# Revision: 0
# Processed by: cddbd v1.5.2PL0 Copyright (c) Steve Scherf et al.
# Submitted via: CDex 1.77
#
DISCID=7d0f051b
DTITLE=Robben FORD - The Blues and Beyond
DYEAR=1992
DGENRE=Blues
TTITLE0=Introduction
TTITLE1=Tuning Notes
TTITLE2=Intro to Part I - Rhumba Blues
TTITLE3=Rhumba Blues Transcription
TTITLE4=Chord Voicing and Scale Usage
TTITLE5=Transposing Scales
TTITLE6=Comparing The Three Scales
TTITLE7=Focusing on the D7 (V)
TTITLE8=Comparing Examples
TTITLE9=Intro to Part II - Revelation
TTITLE10=Revalation Transcription
TTITLE11=Chords for Revelation
TTITLE12=The B7 Change
TTITLE13=The Bridge
TTITLE14=The Chorus
TTITLE15=Tying It All Together
TTITLE16=Part III - Diminished Scale Usage
TTITLE17=Intro to Part IV - I Ain't Got Nothing But The Blues
TTITLE18=Chord Voicings
TTITLE19=The D Altered Scale and The G Harmonic and MelodicMinor Scales
TTITLE20=Bringing The Scales Together
TTITLE21=The Bridge
TTITLE22=Intro to Part V - Miles Groove
TTITLE23=Miles Groove Solo #1
TTITLE24=The Changes
TTITLE25=Miles Groove Solo #2
TTITLE26=Finale
EXTD=YEAR: 1992
EXTT0=
EXTT1=
EXTT2=
EXTT3=
EXTT4=
EXTT5=
EXTT6=
EXTT7=
EXTT8=
EXTT9=
EXTT10=
EXTT11=
EXTT12=
EXTT13=
EXTT14=
EXTT15=
EXTT16=
EXTT17=
EXTT18=
EXTT19=
EXTT20=
EXTT21=
EXTT22=
EXTT23=
EXTT24=
EXTT25=
EXTT26=
PLAYORDER=
